<svg width="97" height="97" viewBox="0 0 97 97" fill="none" xmlns="http://www.w3.org/2000/svg">
<circle cx="48.5" cy="48.5" r="48.5" fill="#4257DE" fill-opacity="0.23"/>
<path d="M49 29C43.486 29 39 33.6041 39 39.2632C39 44.9223 43.486 49.5263 49 49.5263C54.514 49.5263 59 44.9223 59 39.2632C59 33.6041 54.514 29 49 29ZM49 45.4211C45.692 45.4211 43 42.6582 43 39.2632C43 35.8681 45.692 33.1053 49 33.1053C52.308 33.1053 55 35.8681 55 39.2632C55 42.6582 52.308 45.4211 49 45.4211ZM67 68V65.9474C67 58.0263 60.718 51.5789 53 51.5789H45C37.28 51.5789 31 58.0263 31 65.9474V68H35V65.9474C35 60.2883 39.486 55.6842 45 55.6842H53C58.514 55.6842 63 60.2883 63 65.9474V68H67Z" fill="#4257DE"/>
</svg>
