<svg width="97" height="97" viewBox="0 0 97 97" fill="none" xmlns="http://www.w3.org/2000/svg">
<circle cx="48.5" cy="48.5" r="48.5" fill="#4257DE" fill-opacity="0.23"/>
<path fill-rule="evenodd" clip-rule="evenodd" d="M31.0527 61.6052C31.2411 61.794 31.4648 61.9438 31.7112 62.0461C31.9575 62.1483 32.2216 62.2009 32.4883 62.2009C32.755 62.2009 33.0191 62.1483 33.2654 62.0461C33.5117 61.9438 33.7355 61.794 33.9238 61.6052L48.709 46.816L63.4942 61.6052C63.8749 61.9859 64.3913 62.1998 64.9297 62.1998C65.4681 62.1998 65.9845 61.9859 66.3652 61.6052C66.746 61.2245 66.9598 60.7081 66.9598 60.1697C66.9598 59.6313 66.746 59.1149 66.3652 58.7341L50.1445 42.5134C49.9562 42.3246 49.7324 42.1748 49.4861 42.0726C49.2398 41.9704 48.9757 41.9178 48.709 41.9178C48.4423 41.9178 48.1782 41.9704 47.9319 42.0726C47.6855 42.1748 47.4618 42.3246 47.2735 42.5134L31.0527 58.7341C30.8639 58.9225 30.7141 59.1462 30.6119 59.3926C30.5097 59.6389 30.4571 59.903 30.4571 60.1697C30.4571 60.4364 30.5097 60.7005 30.6119 60.9468C30.7141 61.1931 30.8639 61.4169 31.0527 61.6052ZM26 34.6221C26 35.5142 26.7299 36.2441 27.6221 36.2441H69.7959C70.2261 36.2441 70.6387 36.0732 70.9429 35.769C71.2471 35.4649 71.418 35.0523 71.418 34.6221C71.418 34.1919 71.2471 33.7793 70.9429 33.4751C70.6387 33.1709 70.2261 33 69.7959 33H27.6221C27.1919 33 26.7793 33.1709 26.4751 33.4751C26.1709 33.7793 26 34.1919 26 34.6221Z" fill="#4257DE"/>
</svg>
